<svg xmlns="http://www.w3.org/2000/svg" viewBox="0 0 1000.25 1000.25"><defs><style>.cls-1{fill:#3f5177;}.cls-1,.cls-10,.cls-11,.cls-12,.cls-13,.cls-14,.cls-15,.cls-16,.cls-17,.cls-18,.cls-19,.cls-2,.cls-20,.cls-21,.cls-22,.cls-23,.cls-24,.cls-25,.cls-26,.cls-27,.cls-28,.cls-29,.cls-3,.cls-30,.cls-31,.cls-32,.cls-33,.cls-34,.cls-35,.cls-36,.cls-37,.cls-38,.cls-4,.cls-6,.cls-7,.cls-8,.cls-9{stroke:#000;stroke-miterlimit:10;stroke-width:0.25px;}.cls-2{fill:#c2d1f0;}.cls-3{fill:#5e5175;}.cls-4{fill:#e81e62;}.cls-5{fill:none;}.cls-6{fill:#fe9dd0;}.cls-7{fill:#5f5278;}.cls-8{fill:#44427c;}.cls-9{fill:#46447b;}.cls-10{fill:#bfbec8;}.cls-11{fill:#5e5475;}.cls-12{fill:#fef2f0;}.cls-13{fill:#b8b3da;}.cls-14{fill:#5f5375;}.cls-15{fill:#afb4df;}.cls-16{fill:#fef2f4;}.cls-17{fill:#3c447e;}.cls-18{fill:#454479;}.cls-19{fill:#adb0db;}.cls-20{fill:#f0cb01;}.cls-21{fill:#f8195b;}.cls-22{fill:#f5ca05;}.cls-23{fill:#fb1c60;}.cls-24{fill:#12237e;}.cls-25{fill:#fff;}.cls-26{fill:#102279;}.cls-27{fill:#111e79;}.cls-28{fill:#fff9fb;}.cls-29{fill:#bfd3d8;}.cls-30{fill:#fbefac;}.cls-31{fill:#fbec9c;}.cls-32{fill:#605378;}.cls-33{fill:#c0bcdb;}.cls-34{fill:#94b0d9;}.cls-35{fill:#0ac2fd;}.cls-36{fill:#fb1d60;}.cls-37{fill:#02c0f8;}.cls-38{fill:#f3ca06;}</style></defs><g id="Layer_2" data-name="Layer 2"><g id="Layer_1-2" data-name="Layer 1"><path class="cls-1" d="M599.63,660.63c-8,4.34-17.54,3.45-24.54.14l1.54-1.14c4.19-3.2,18-14,26-31a41.92,41.92,0,0,0,2.69-7.24,24.6,24.6,0,0,1-5.69,39.24Z"/><path class="cls-2" d="M655.2,222.22a96.68,96.68,0,0,0-24.57-6.59c-12-1.55-33.35-4.34-52,9a55.27,55.27,0,0,0-12.86,12.92c-1.72-.52-3.53-1.06-5.44-1.59a63.64,63.64,0,0,1,15.3-18.33,57,57,0,0,1,21.47-10.95,60.39,60.39,0,0,1,14.53-2.05c16.23-.3,28.75,6.27,36.45,11.77A75.2,75.2,0,0,1,655.2,222.22Z"/><path class="cls-3" d="M676.63,267.63A56,56,0,0,1,672.09,290a60.9,60.9,0,0,1-3.32,6.72h0A86.52,86.52,0,0,0,665,310c-.94-1.44-1.85-2.75-2.67-3.95l-1.33-1.9c-.17-.22-.31-.43-.47-.63-1.18-1.65-2.14-2.94-2.85-3.88-26.18-34.85-59.1-49.28-75-56l-.37-.16-.29-.12-.31-.13c-.24-.09-.49-.2-.76-.32l-.74-.3a.52.52,0,0,1-.15-.06l-1-.39c-1-.38-2.08-.8-3.3-1.25-.25-.08-.5-.19-.76-.27l-.27-.11-2.17-.76-.88-.31-.8-.27c-.26-.09-.55-.17-.82-.28l-1.77-.57-.9-.29-.93-.28c-.21-.08-.43-.13-.64-.21a55.27,55.27,0,0,1,12.86-12.92c18.65-13.34,40-10.55,52-9a96.68,96.68,0,0,1,24.57,6.59c.14.14.29.29.43.41a70.55,70.55,0,0,1,11.78,14.09A57.86,57.86,0,0,1,676.63,267.63Z"/><path class="cls-4" d="M708.3,273c-8.6-.16-19.53,1.38-28.67,8.59-.29.22-.58.45-.85.69a32,32,0,0,0-6.69,7.66,56,56,0,0,0,4.54-22.35,57.86,57.86,0,0,0-9.22-30.91,42.55,42.55,0,0,0-8.59-12.89l-.19-.2a34.57,34.57,0,0,0-10.55-7.23c-7.7-5.5-20.22-12.07-36.45-11.77a60.39,60.39,0,0,0-14.53,2.05l-.47-.05c-15-1.78-30-1.86-60-2-25.12-.14-14.87.48-61,1a310.22,310.22,0,0,0-55,5c-9.66,1.78-16.85,3.64-24,9a43.64,43.64,0,0,0-7,6.55h0a60.73,60.73,0,0,0-16,3.45c-18.12,6.05-28.16,19.17-32,25a63.35,63.35,0,0,0-9.9,26.53c-.24,1.7-.39,3.32-.49,4.86-.79.11-1.58.21-2.33.34a10.11,10.11,0,0,1-.65-1.47c-.16-.4-.29-.79-.41-1.19-.05-.16-.08-.31-.13-.48s-.11-.45-.15-.7c0,0,0,0,0-.06l-.12-.66c-.05-.37-.1-.73-.15-1.12-.58-6.08,1.79-12.91,4.35-20.05A98.11,98.11,0,0,1,352.39,227c3.51-1.61,7.27-3.38,11.24-5.32,22.4-11,30.21-17,43-23,16.48-7.75,29.65-9.85,56-14,8-1.28,43.84-6.68,93-4,20.89,1.14,22,2.52,48,4,7.3.41,14.26.7,20.78.89h0c2,.65,4.1,1.36,6.2,2.11,14.32,5.1,27.42,9.89,42,21,6.63,5,25.59,20.57,34,46C709.77,264.14,709.66,269.35,708.3,273Z"/><path class="cls-5" d="M331.24,286c0,.14,0,.27,0,.41v0c0,.29,0,.58-.05.88,0,.77,0,1.53-.06,2.26a7.22,7.22,0,0,1-.56-.68,2.23,2.23,0,0,1-.19-.24c-.2-.26-.39-.53-.58-.79l-.15-.25c-.14-.22-.25-.42-.37-.62l-.35-.65C329.66,286.23,330.45,286.13,331.24,286Z"/><path class="cls-6" d="M624.41,185.52c-6.52-.19-13.48-.48-20.78-.89-26-1.48-27.11-2.86-48-4-49.16-2.68-85,2.72-93,4-26.35,4.15-39.52,6.25-56,14-12.79,6-20.6,12-43,23-4,1.94-7.73,3.71-11.24,5.32,1.6-1.74,3.06-3.18,4.24-4.32,5.33-5.17,23.48-21.93,58-35,30.11-11.42,54.65-13.18,80-15a398,398,0,0,1,75,2C586.47,176.64,603.61,178.78,624.41,185.52Z"/><path class="cls-7" d="M428.34,242.55c-12.24,5-33.25,14.31-53.71,34.08-2,1.89-3.86,3.82-5.67,5.76a143.16,143.16,0,0,0-10.76,13q-3.07,4.17-5.79,8.46h0c-.52.85-1.06,1.69-1.57,2.54s-.87,1.44-1.29,2.16c-.29.53-.59,1.05-.89,1.58-.21.35-.42.7-.61,1.05s-.33.59-.48.9l-.09.13a.07.07,0,0,0,0,.05l-1.13,2.07c-.31.58-.61,1.16-.89,1.75s-.6,1.14-.87,1.72c-1.12,2.23-2.17,4.47-3.18,6.72-.38.87-.76,1.72-1.13,2.59-.28-.39-.55-.78-.8-1.19s-.38-.62-.56-.94-.25-.43-.38-.65l-.36-.67c-.2-.39-.41-.81-.6-1.21v0l-.06-.11c-.23-.49-.44-1-.66-1.44v0c-.21-.52-.43-1.06-.63-1.58s-.42-1.1-.61-1.64-.37-1.11-.53-1.66l0,0c-.16-.55-.33-1.09-.48-1.63s-.31-1.11-.44-1.66-.29-1.08-.41-1.64-.25-1.07-.36-1.61c-.06-.27-.12-.52-.16-.78s-.11-.53-.16-.79c-.09-.51-.2-1-.28-1.52-.05-.25-.1-.5-.13-.75-.1-.52-.17-1-.25-1.52s-.12-.79-.18-1.17c-.09-.55-.16-1.06-.23-1.56s-.09-.74-.13-1.08-.1-.67-.13-1,0-.41-.08-.61a66.7,66.7,0,0,1-.52-9c0-.73,0-1.49.06-2.26,0-.3,0-.59.05-.88v0c0-.14,0-.27,0-.41l.49,0a82.19,82.19,0,0,1,14.9-23.34c1.83-2,3.69-3.86,5.54-5.55a.45.45,0,0,1,.06.12c2.1,4,9.93,4,17.5,0s12-10.43,9.94-14.41a4.51,4.51,0,0,0-1.49-1.65c.6-.23,1.08-.38,1.45-.51,17.71-6,34.2-4.14,45.9-1h0C426.53,240.57,427.46,241.54,428.34,242.55Z"/><path class="cls-8" d="M437.16,650.8v0a45,45,0,0,1-.53,6.8c-.18,1.11-.41,2.55-.71,4.1-1,5-2.76,11.18-6.29,11.9-2,.39-4.4-1-6.89-3.53a29.39,29.39,0,0,1,.15,3,77.56,77.56,0,0,0-3.26-10.44,76.46,76.46,0,0,0-7.7-14.66c3-2.33,7-2.9,8.7-3.34,3.84-1,8.15-4.45,12.19-13.59.21.49.44,1,.65,1.55.1.23.19.45.27.69,0,0,0,0,0,.05.07.21.16.44.25.66s.18.49.26.74.19.51.27.78.17.51.27.78c.16.54.34,1.1.5,1.66l.23.88c.11.37.21.76.29,1.15s.25,1,.36,1.57c0,0,0,0,0,.06.07.29.12.59.17.87s.14.8.21,1.2.12.79.17,1.2.09.77.14,1.16c0,0,0,.09,0,.12,0,.48.08.94.12,1.42,0,.19,0,.37.05.56s0,.1,0,.15v.14c0,.28,0,.58,0,.86s0,.5,0,.75S437.16,650.54,437.16,650.8Z"/><path class="cls-9" d="M422.89,673.07s0,0,0,0a33.24,33.24,0,0,1-.26,4.55c-1,8.07-4.93,14.39-9,21-3.43,5.55-9.83,15.65-22,22-5,2.57-9.9,5.14-16,4-9.37-1.77-14.45-11-15-12,0-.06-.06-.11-.1-.18a49.84,49.84,0,0,0,26.1-7.82c4.3-2.8,16.05-10.41,19-23,3.78-16.27,3-24,3-24a11.13,11.13,0,0,1,1-7,8.64,8.64,0,0,1,2.3-2.66,76.46,76.46,0,0,1,7.7,14.66A77.56,77.56,0,0,1,422.89,673.07Z"/><path class="cls-10" d="M396.71,596a58.61,58.61,0,0,0-26.08,4.67A54.47,54.47,0,0,0,357,609c2.14,2.42.77,7.42-3.14,11.35-3.25,3.25-7.25,4.73-9.91,3.91a85.77,85.77,0,0,0-7.34,15.34,74.6,74.6,0,0,0-4.14,15.91c-.39-2.84-.64-5.51-.86-7.91-1.11-11.75-2.21-23.4,5-35,7.38-11.91,18.94-16.47,23-18a48.14,48.14,0,0,1,26.05-2.42c.65.12,1.29.26,1.95.42.5.11,1,.25,1.47.38l1.29.38c.25.07.5.15.74.24l1.16.4a.73.73,0,0,1,.12.05q.68.24,1.32.51c.48.19.93.39,1.37.61h.06l0,0c.36.16.7.33,1.05.5l.06,0Z"/><path class="cls-11" d="M432.82,631c-4,9.14-8.35,12.6-12.19,13.59-1.72.44-5.73,1-8.7,3.34a8.64,8.64,0,0,0-2.3,2.66,11.13,11.13,0,0,0-1,7s.78,7.73-3,24c-2.95,12.59-14.7,20.2-19,23a49.84,49.84,0,0,1-26.1,7.82c-4.58-8.75-.48-14.42-5.9-21.82-2.84-3.86-5.16-4-9-7-8.89-7-11.8-18.33-13.14-28.06,0,0,0,0,0,0h0a74.6,74.6,0,0,1,4.14-15.91A85.77,85.77,0,0,1,344,624.29c2.66.82,6.66-.66,9.91-3.91,3.91-3.93,5.28-8.93,3.14-11.35a54.47,54.47,0,0,1,13.61-8.4A58.61,58.61,0,0,1,396.71,596h0a2.11,2.11,0,0,1,.33.18c.37.18.73.37,1.09.58l.75.42a3.29,3.29,0,0,1,.46.3c.35.19.69.39,1,.62s.95.6,1.44.92l1.12.75,1.18.83.28.2c.37.26.75.53,1.12.81,1.32,1,2.68,2,4.1,3,7.82,5.88,15.34,11.53,21,22,.07.13.15.26.22.41s.14.28.22.41C431.55,628.39,432.16,629.58,432.82,631Z"/><path class="cls-11" d="M570.63,749.63c-.4,7-.72,12.65-4,19-1.66,3.16-5.41,10.39-14,14-1.45.6-10.65,4.29-20,0-12.48-5.74-14.85-20.87-15-22-.66-4.73.48-5.89-1-9,0-.11-.11-.23-.17-.34-3.12-6-9.89-5.8-15.83-10.66-4.61-3.8-6.08-8.47-9-19-7.66-27.55-11.42-41.39-9-44a2,2,0,0,1,.28-.3,149,149,0,0,0,35.72,1.3c10.9-.93,25.52-2.2,40.64-8.8h0a8.2,8.2,0,0,1,5.35,2.8c3.21,4.14-1.62,9-2,21-.14,4.2.9,9.46,3,20s3,11.52,4,19A82.41,82.41,0,0,1,570.63,749.63Z"/><path class="cls-12" d="M667.13,421.13c-2-7-7-13-9-20-8-20-10-42-7-63,.84-11.73,3.08-24.15,9.35-34.62-1.18-1.65-2.14-2.94-2.85-3.88-26.18-34.85-59.1-49.28-75-56l-.37-.16-.29-.12-.31-.13c-.24-.09-.49-.2-.76-.32l-.74-.3a.52.52,0,0,1-.15-.06l-1-.39c-1-.38-2.08-.8-3.3-1.25-.25-.08-.5-.19-.76-.27l-.27-.11-2.17-.76-.88-.31-.8-.27c-.26-.09-.55-.17-.82-.28l-1.77-.57-.9-.29-.93-.28c-.21-.08-.43-.13-.64-.21-1.72-.52-3.53-1.06-5.44-1.59-27.78-7.73-76.8-15.32-129.05,5.4-.21.09-.44.17-.65.27l-2.29.92c-12.24,5-33.25,14.31-53.71,34.08-2,1.89-3.86,3.82-5.67,5.76a143.16,143.16,0,0,0-10.76,13q-3.07,4.17-5.79,8.46h0c-.52.85-1.06,1.69-1.57,2.54s-.87,1.44-1.29,2.16c-.29.53-.59,1.05-.89,1.58-.21.35-.42.7-.61,1.05s-.33.6-.48.9l-.09.13a.07.07,0,0,0,0,.05l-1.13,2.07c-.31.58-.61,1.16-.89,1.75s-.6,1.14-.87,1.72c-1.12,2.23-2.17,4.47-3.18,6.72-.38.87-.76,1.72-1.13,2.59-1,2.28-1.92,4.59-2.8,6.9-.09.23-.19.47-.27.71a.48.48,0,0,0-.05.14c-.36.91-.68,1.8-1,2.72-.3.76-.57,1.55-.85,2.32-.05.17-.11.31-.15.48-.26.75-.53,1.48-.78,2.23-.5,1.43-1,2.87-1.43,4.31-.19.59-.38,1.16-.55,1.74-.29.92-.59,1.86-.87,2.79s-.62,2.07-.92,3.1c-.25.83-.5,1.65-.73,2.47s-.51,1.77-.76,2.66-.55,2-.81,2.93c-.47,1.77-1,3.53-1.41,5.29-.37,1.38-.73,2.77-1.09,4.17-.45,1.71-.88,3.45-1.32,5.17-.08.36-.18.72-.26,1.09-.54,2.08-1.06,4.19-1.58,6.3-.12.48-.25,1-.36,1.46-.35,1.39-.68,2.75-1,4.08s-.65,2.66-1,3.94l-.94,3.82c-.16.64-.31,1.25-.45,1.86-.5,2.09-1,4.1-1.45,6.06-.15.67-.3,1.31-.45,1.95-.32,1.38-.63,2.73-.91,4.06-.25,1.16-.5,2.28-.73,3.4a173.6,173.6,0,0,0-3.3,21.06,7.24,7.24,0,0,1,6.09,5.81c1,6,1.5,10.5,5.5,15.5,1,1,1.5,2.5,2.5,3.5,16,18,32,34,53,46,23,13,48,20,74,23,22,3,43,2,65,2,55-2,104-29,142-69C670.13,451.13,671.13,436.13,667.13,421.13Zm-44.5-56.5c-.49,4.79-2.85,27.67-21,38-19.24,10.94-43,.27-56.27-10.54a39.41,39.41,0,0,1-1.73,13.54c-3.91,12.26-13.35,18.78-18,22-26.52,18.29-59,6.16-62,5-9-3.53-21.1-8.25-27-21a30.63,30.63,0,0,1-1.85-5.08c-.7.38-1.43.73-2.15,1.08-1.67.77-28.48,12.71-49-3-18.74-14.36-16.54-39.75-16-46a60.49,60.49,0,0,1,10.55-29.05,61.17,61.17,0,0,1,7.45-8.95c4.4-4.37,13.9-13.8,27-16.36a33.93,33.93,0,0,1,8-.64c20.73.77,36.92,20.09,42,38a52,52,0,0,1,1.9,16.15c1.54-.46,2.93-.83,4.1-1.15,13.63-3.71,25.08-1.14,48,4,3.8.84,6.71,1.6,9,2.29a50.8,50.8,0,0,1-2-25.29c.72-4.11,4.11-23,21-33,20-11.89,42.32-1.4,47,1C613.52,316.78,625,342,622.63,364.63Z"/><path class="cls-13" d="M687.57,426.93c-11.36,43.18-41.92,68.09-54.94,78.7A166.64,166.64,0,0,1,613,519.41q-1.95,1.19-3.9,2.26c-24.57,13.87-48.27,19-67.48,23s-75.86,14.83-137.92-8.29h0c-2.41-.89-4.8-1.82-7.23-2.83l-2.63-1.11c-2.06-.88-4.13-1.81-6.21-2.77-3.66-1.72-7.42-3.47-11.23-5.31h0c-23.48-11.41-48.54-26.3-59.76-54.69-4.34-11-5.55-21.24-4.6-33.22,0,0,0-.07,0-.09,3.45.36,5.68,3.59,6.59,6.31,1,6,1,10,5,15,1,1,1.5,2.5,2.5,3.5,16,18,32,34,53,46,23,13,48,20,74,23,22,3,43,2,65,2,55-2,104-29,142-69,10-12,11-27,7-42-2-7-7-13-9-20-8-20-10-42-7-63,.84-11.73,3.08-24.15,9.35-34.62.16.2.3.41.47.63l1.33,1.9c.82,1.2,1.73,2.51,2.67,3.95-.79,3.55-1.53,7.41-2.32,11.64-3.59,18.83-10.12,53.2,8,85C674.32,413.08,679.13,421.3,687.57,426.93Z"/><path class="cls-5" d="M622.63,364.63c-.49,4.79-2.85,27.67-21,38-19.24,10.94-43,.27-56.27-10.54a39.41,39.41,0,0,1-1.73,13.54c-3.91,12.26-13.35,18.78-18,22-26.52,18.29-59,6.16-62,5-9-3.53-21.1-8.25-27-21a30.63,30.63,0,0,1-1.85-5.08,33.45,33.45,0,0,1-1.19-10.28c0-.2,0-.42,0-.63s0-.62.05-.94c.06-.9.17-1.77.29-2.62,0-.29.08-.56.12-.82s.11-.74.19-1.11.16-.87.27-1.3c.19-.88.39-1.72.63-2.55.11-.38.2-.75.32-1.12s.23-.72.35-1.05c.22-.73.47-1.41.71-2.05s.48-1.17.69-1.69c.65-1.5,1.24-2.71,1.69-3.54l.16-.27c.2-.38.37-.66.46-.82a.56.56,0,0,1,.09-.13c.21-.36.42-.7.65-1s.44-.65.68-1,.45-.65.7-1l.7-.9.74-.88c.24-.28.49-.56.74-.82s.56-.61.86-.9l.48-.49c.33-.32.66-.63,1-.92,0,0,0,0,0,0l1.18-1c.42-.33.81-.67,1.23-1v0l1-.75c1-.75,2.08-1.44,3.13-2.07.69-.41,1.4-.8,2.09-1.16.34-.19.69-.35,1-.53l1-.5c.33-.16.68-.31,1-.46l.67-.29.74-.31.59-.24c.31-.13.64-.25,1-.37s.7-.26,1-.38l.84-.29c.31-.1.6-.21.9-.29l.87-.29c1.54-.46,2.93-.83,4.1-1.15,13.63-3.71,25.08-1.14,48,4,3.8.84,6.71,1.6,9,2.29a50.8,50.8,0,0,1-2-25.29c.72-4.11,4.11-23,21-33,20-11.89,42.32-1.4,47,1C613.52,316.78,625,342,622.63,364.63Z"/><path class="cls-14" d="M730.07,520.82Q724.7,531,718.63,542.63c-7.52,14.41-9.48,18.4-14,23-9.42,9.57-21.1,12.73-40,16-13.16,2.26-29.61,4.54-49,6h0c-5.12-1.84-9-3.57-11.35-4.63a21.28,21.28,0,0,1,6.75,4.94,11.45,11.45,0,0,1,2.58,4.74c1.1,4.25-.77,7.82-3,13-1.18,2.71-2,4.92-2.71,6.78-9.72-3.46-20.43-7.64-35.29-13.78-34-14-32.34-14.47-52-22-21.5-8.24-32.25-12.36-46-15-21-4-38.22-3.47-52-3a300.79,300.79,0,0,0-31.48,2.69c2.25-12.27,3.94-21.43,5.32-27.81,2.43,1,4.82,1.94,7.23,2.83h0c62.06,23.12,118.75,12.24,137.92,8.29s42.91-9.09,67.48-23c1.11,1.22,2.29,2.54,3.52,4,4.58,5.22,5,6,6,7,9.3,9.35,34.23.72,45-3,8.72-3,22.46-7.93,37-20a111.47,111.47,0,0,0,9-8.43c4.42.91,11.18,3.27,16,9.43A22.45,22.45,0,0,1,730.07,520.82Z"/><path class="cls-15" d="M606.2,618c-.32,1.2-.59,2.28-.88,3.37a41.92,41.92,0,0,1-2.69,7.24c-8,17-21.81,27.8-26,31l-1.54,1.14h0a84.82,84.82,0,0,1-15.8,9.06h0c-15.12,6.6-29.74,7.87-40.64,8.8a149,149,0,0,1-35.72-1.3,146.89,146.89,0,0,1-43.28-13.7l-3.71-1.9c.3-1.55.53-3,.71-4.1a45,45,0,0,0,.53-6.8v0c0-.26,0-.51,0-.76s0-.5,0-.75,0-.58,0-.86v-.14s0-.09,0-.15,0-.37-.05-.56c0-.48-.07-1-.12-1.42,0,0,0-.08,0-.12,0-.39-.08-.77-.14-1.16s-.11-.8-.17-1.2-.13-.79-.21-1.2-.1-.58-.17-.87c0,0,0,0,0-.06-.11-.53-.23-1.06-.36-1.57s-.18-.78-.29-1.15l-.23-.88c-.16-.56-.34-1.12-.5-1.66-.1-.27-.17-.52-.27-.78s-.17-.53-.27-.78-.18-.5-.26-.74-.18-.45-.25-.66c0,0,0,0,0-.05-.08-.24-.17-.46-.27-.69-.21-.55-.44-1.06-.65-1.55-.66-1.46-1.27-2.65-1.75-3.59-.08-.13-.15-.28-.22-.41s-.15-.28-.22-.41c-5.66-10.47-13.18-16.12-21-22-1.42-1.08-2.78-2.09-4.1-3-.37-.28-.75-.55-1.12-.81l-.28-.2-1.18-.83-1.12-.75c-.49-.32-1-.63-1.44-.92s-.69-.43-1-.62a3.29,3.29,0,0,0-.46-.3l-.75-.42c-.36-.21-.72-.4-1.09-.58a2.11,2.11,0,0,0-.33-.18h0l-.39-.19-.06,0c-.35-.17-.69-.34-1.05-.5l0,0h-.06c-.44-.22-.89-.42-1.37-.61s-.87-.35-1.32-.51a.73.73,0,0,0-.12-.05l-1.16-.4c-.24-.09-.49-.17-.74-.24L389.1,593c-.47-.13-1-.27-1.47-.38-.66-.16-1.3-.3-1.95-.42.29-1.83.6-3.82,1-6,.1-.58.19-1.18.31-1.79,3.17,1.27,7.1,2.74,11.66,4.2,8.4,2.66,10.48,2.61,15,5,6.5,3.42,10.4,7.89,14,12a70.7,70.7,0,0,1,9.28,13.59c.66,1.25,1.22,2.39,1.72,3.41a91.62,91.62,0,0,1,7,20,95.86,95.86,0,0,1,2,13l4,2a151.7,151.7,0,0,0,26,8,147.05,147.05,0,0,0,39,3c8.51-.55,19-1.3,32-6a98.6,98.6,0,0,0,23-12c11.08-7.86,13.09-12.9,26-25C599.91,623.47,602.78,620.89,606.2,618Z"/><path class="cls-16" d="M607.92,612.41c-.81,2.29-1.32,4.05-1.72,5.61-3.42,2.87-6.29,5.45-8.57,7.61-12.91,12.1-14.92,17.14-26,25a98.6,98.6,0,0,1-23,12c-13,4.7-23.49,5.45-32,6a147.05,147.05,0,0,1-39-3,151.7,151.7,0,0,1-26-8l-4-2a95.86,95.86,0,0,0-2-13,91.62,91.62,0,0,0-7-20c-.5-1-1.06-2.16-1.72-3.41a70.7,70.7,0,0,0-9.28-13.59c-3.6-4.11-7.5-8.58-14-12-4.52-2.39-6.6-2.34-15-5-4.56-1.46-8.49-2.93-11.66-4.2.74-4.29,1.63-9.2,2.66-14.8.53-2.92,1-5.68,1.52-8.31a300.79,300.79,0,0,1,31.48-2.69c13.78-.47,31-1,52,3,13.75,2.64,24.5,6.76,46,15,19.66,7.53,18,8,52,22C587.49,604.77,598.2,609,607.92,612.41Z"/><path class="cls-17" d="M730.63,532.63a60.79,60.79,0,0,1-11,34c-9.54,13.39-22,19-29,22-28.12,12.14-58.09,5-75-1,19.36-1.41,35.81-3.69,49-6,18.9-3.27,30.58-6.43,40-16,4.52-4.6,6.48-8.59,14-23q6-11.65,11.44-21.81A58.74,58.74,0,0,1,730.63,532.63Z"/><path class="cls-18" d="M396.47,533.51c-1.38,6.38-3.07,15.54-5.32,27.81-.49,2.63-1,5.39-1.52,8.31-1,5.6-1.92,10.51-2.66,14.8-.12.61-.21,1.21-.31,1.79-9.92,1-25.8-1.19-50-4.59-20.4-2.87-26.25-5-32-9-2-1.42-20.64-14.84-20-36A33.74,33.74,0,0,1,285,533a73.74,73.74,0,0,0,7.68,11.64,75.26,75.26,0,0,0,34,24c14.95,4.92,26.82,3.19,35,2,6.8-1,11.09-2.52,14-6,2.4-2.89,2.79-5.85,4-14,.44-3,1.16-8,2.17-14.6.71-.14,1.31-.29,1.83-.4a67.69,67.69,0,0,0,10.21-3.23Z"/><path class="cls-19" d="M393.84,532.4a67.69,67.69,0,0,1-10.21,3.23c-.52.11-1.12.26-1.83.4-6,1.3-18.77,3.4-32.17-1.4-10.34-3.71-16-9.7-33-17a21.39,21.39,0,0,0-9-2c-7,.08-12.1,4-16,7a45.29,45.29,0,0,0-5.77,5.34c1.55-6.45,5-14.73,12.77-18.34,6.71-3.14,13.65-1.36,19,0,12.77,3.25,16.72,9.57,25,14,12.59,6.75,23.83,3,33.76.69h0c3.81,1.84,7.57,3.59,11.23,5.31C389.71,530.59,391.78,531.52,393.84,532.4Z"/><path class="cls-20" d="M765.63,376.63c-.3,6.42-.91,12.28-1.62,17.44a36.53,36.53,0,0,1-9,9.41h0a33.53,33.53,0,0,1-5.38,3.14,38.79,38.79,0,0,1-17.72,3.3h0a31.91,31.91,0,0,1-18.23-6.3c-7.11-5.54-9.09-13-13-28a139.93,139.93,0,0,1-3.93-22,134.92,134.92,0,0,1-.07-26c1.7-18.12,2.71-29,9.13-35.58l14.87,3.58a27.64,27.64,0,0,1,11,0c12.28,2.52,19.26,13.14,23,19a64.67,64.67,0,0,1,5.48,10.64,5.31,5.31,0,0,0-2.77-.42c-4.65.6-7.62,7.5-6.63,15.44s5.57,13.92,10.23,13.35a6.69,6.69,0,0,0,4.73-3.57A208.12,208.12,0,0,1,765.63,376.63Z"/><path class="cls-21" d="M774.73,352.6c.07-3.67-.05-6.21-.1-7a74.12,74.12,0,0,0-10-33c-4.27-7.2-10.36-17.49-23-23-3-1.3-20.64-8.61-33,0a18.36,18.36,0,0,0-2.87,2.42c-6.42,6.61-7.43,17.46-9.13,35.58a134.92,134.92,0,0,0,.07,26,139.93,139.93,0,0,0,3.93,22c3.91,15,5.89,22.46,13,28a31.91,31.91,0,0,0,18.23,6.3h0a38.79,38.79,0,0,0,17.72-3.3,33.53,33.53,0,0,0,5.38-3.14,105.9,105.9,0,0,1-7.38,10.14c-10,12-19.36,15.73-23,17-3.22,1.1-16.22,5.39-30,0a36.46,36.46,0,0,1-7.06-3.7c-8.44-5.63-13.25-13.85-16.94-20.3-18.12-31.8-11.59-66.17-8-85,.79-4.23,1.53-8.09,2.32-11.64a86.52,86.52,0,0,1,3.81-13.28h0a60.9,60.9,0,0,0,3.32-6.72,32,32,0,0,1,6.69-7.66c.27-.24.56-.47.85-.69,9.14-7.21,20.07-8.75,28.67-8.59a72.7,72.7,0,0,1,13.33,1.59c27.59,5.52,42.18,28.1,44,31C774.92,320.49,776.8,336.92,774.73,352.6Z"/><path class="cls-22" d="M329.78,287.88q-2.91,3-5.8,6.35l-.89,1.06c-2.37,2.85-4.7,5.92-7,9.23-.35.51-.7,1-1,1.55s-.51.77-.76,1.17c-.42.64-.81,1.27-1.22,1.91-.5.81-1,1.63-1.48,2.48s-.85,1.47-1.27,2.2c-.83,1.49-1.6,2.95-2.34,4.44q-1.8,3.56-3.3,7.11c-.25.54-.48,1.09-.7,1.64,0,.12-.1.25-.14.37-.28.65-.54,1.31-.78,2-.76,1.94-1.44,3.89-2.07,5.83-.25.71-.46,1.42-.69,2.14-.43,1.41-.85,2.82-1.23,4.23-.2.72-.38,1.41-.54,2.11s-.3,1.2-.44,1.8-.29,1.19-.41,1.78-.21.94-.31,1.4c-.49,2.34-.92,4.66-1.26,6.95-.08.5-.17,1-.23,1.49-.31,2.1-.56,4.19-.76,6.25-.07.65-.13,1.31-.18,1.95s-.09,1.3-.14,1.94-.1,1.25-.12,1.87-.06,1-.08,1.52c-.05.8-.07,1.59-.1,2.37s0,1.32-.05,2,0,1.12,0,1.66v1.27c0,.89,0,1.77,0,2.65s0,1.82.09,2.71.06,1.59.09,2.35c.12,2.34-2.74,6.36-2.54,8.54-9.31-7.65-12.22-8-17.5-15.5-5.4-7.65-4.45-16.52-3-30,.25-2.37.5-4.71.78-7h0a99.33,99.33,0,0,1,7.22-14c1.47-2.39,3-4.65,4.51-6.68a4.3,4.3,0,0,0,1.26,3.83c2.45,2,7.57-.18,11.44-4.89s5-10.19,2.54-12.19a4.43,4.43,0,0,0-4.3-.4c4.75-5.58,9.07-10.1,14.55-13.67a49.34,49.34,0,0,1,19.28-7.27c.11.22.23.43.35.65s.23.4.37.62Z"/><path class="cls-5" d="M310.36,313.83q-1.23,2.21-2.34,4.44C308.76,316.78,309.53,315.32,310.36,313.83Z"/><path class="cls-23" d="M340.27,327.11c-1,2.28-1.92,4.59-2.8,6.9-.09.23-.19.47-.27.71a.48.48,0,0,0-.05.14c-.36.91-.68,1.8-1,2.72-.29.76-.57,1.55-.85,2.32-.05.17-.11.31-.15.48-.28.75-.54,1.48-.78,2.23-.5,1.43-1,2.87-1.43,4.31-.19.59-.38,1.16-.55,1.74-.29.92-.59,1.86-.87,2.79s-.62,2.07-.92,3.1c-.25.83-.5,1.65-.73,2.47s-.51,1.77-.76,2.66-.55,2-.81,2.93c-.49,1.77-1,3.53-1.41,5.29-.37,1.38-.73,2.77-1.09,4.17-.45,1.71-.88,3.45-1.32,5.17-.08.36-.18.72-.26,1.09-.54,2.08-1.06,4.19-1.58,6.3-.12.48-.25,1-.36,1.46-.36,1.39-.69,2.75-1,4.08s-.65,2.66-1,3.94-.64,2.57-.94,3.82c-.16.64-.31,1.25-.45,1.86-.5,2.09-1,4.1-1.45,6.06-.15.67-.3,1.31-.45,1.95-.32,1.38-.63,2.73-.91,4.06-.27,1.16-.5,2.28-.73,3.4a6.63,6.63,0,0,1-2.71.37c-5.4,0-10.53,4.32-18.5-17.5a20.2,20.2,0,0,0-2-4c-.2-2.18,2.66-6.2,2.54-8.54,0-.76-.07-1.56-.09-2.35s-.06-1.79-.09-2.71,0-1.76,0-2.65v-1.27c0-.54,0-1.09,0-1.66s0-1.31.05-2,0-1.57.1-2.37c0-.5,0-1,.08-1.52s.06-1.25.12-1.87.09-1.29.14-1.94.11-1.3.18-1.95c.2-2.06.45-4.15.76-6.25.07-.5.15-1,.23-1.49.34-2.29.77-4.61,1.26-6.95.1-.46.19-.93.31-1.4s.26-1.17.41-1.78.28-1.19.44-1.8.35-1.39.54-2.11c.38-1.41.8-2.82,1.23-4.23.23-.72.44-1.43.69-2.14.63-1.94,1.31-3.89,2.07-5.83.25-.65.51-1.31.78-2,0-.12.09-.25.14-.37.22-.55.45-1.1.7-1.64q1.5-3.56,3.3-7.11c.74-1.49,1.51-2.95,2.34-4.44.42-.73.84-1.47,1.27-2.2s1-1.67,1.48-2.48c.41-.64.8-1.27,1.22-1.91.25-.4.51-.79.76-1.17s.69-1,1-1.55c2.26-3.31,4.59-6.38,7-9.23l.89-1.06q2.89-3.39,5.8-6.35c.19.26.38.53.58.79a2.23,2.23,0,0,0,.19.24,7.22,7.22,0,0,0,.56.68,66.7,66.7,0,0,0,.52,9c0,.2,0,.4.08.61s.07.65.13,1,.08.71.13,1.08.14,1,.23,1.56c.06.38.12.76.18,1.17s.15,1,.25,1.52c0,.25.08.5.13.75.08.5.17,1,.28,1.52,0,.26.11.52.16.79s.1.51.16.78c.11.54.23,1.07.36,1.61s.25,1.09.41,1.64.28,1.11.44,1.66.31,1.08.48,1.63l0,0c.15.55.34,1.11.53,1.66s.39,1.09.61,1.64.42,1.06.63,1.58v0c.22.47.43.95.66,1.44l.06.11v0c.19.4.4.82.6,1.21l.36.67c.13.22.25.44.38.65s.37.63.56.94S340,326.72,340.27,327.11Z"/><path class="cls-12" d="M545.36,392.09c-.41-9.91-4.39-19.68-11.73-25.46-1.28-1-3-2.17-8-3.71-2.25-.69-5.16-1.45-9-2.29-22.92-5.14-34.37-7.71-48-4-1.17.32-2.56.69-4.1,1.15l-.87.29c-.3.08-.59.19-.9.29l-.84.29c-.34.12-.7.24-1,.38s-.66.24-1,.37l-.59.24-.74.31-.67.29c-.34.15-.69.3-1,.46l-1,.5c-.34.18-.69.34-1,.53-.69.36-1.4.75-2.09,1.16-1.05.63-2.09,1.32-3.13,2.07l-1,.75v0c-.42.31-.81.65-1.23,1l-1.18,1s0,0,0,0c-.32.29-.65.6-1,.92l-.48.49c-.3.29-.59.6-.86.9s-.5.54-.74.82l-.74.88-.7.9c-.25.31-.48.63-.7,1s-.45.64-.68,1-.44.67-.65,1a.56.56,0,0,0-.09.13c-.09.16-.26.44-.46.82l-.16.27c-.45.83-1,2-1.69,3.54-.22.52-.45,1.08-.69,1.69s-.49,1.32-.71,2.05c-.12.33-.24.7-.35,1.05s-.21.74-.32,1.12c-.24.83-.44,1.67-.63,2.55-.11.43-.19.86-.27,1.3s-.13.74-.19,1.11-.09.53-.12.82c-.12.85-.23,1.72-.29,2.62,0,.32,0,.63-.05.94s0,.43,0,.63a33.45,33.45,0,0,0,1.19,10.28,30.63,30.63,0,0,0,1.85,5.08c5.9,12.75,18,17.47,27,21,3,1.16,35.48,13.29,62-5,4.65-3.22,14.09-9.74,18-22A39.41,39.41,0,0,0,545.36,392.09Zm-36.73,7.54c-5.49,2.92-8.23,4.39-10,5-7.37,2.52-13.6,2.26-19,2a47.5,47.5,0,0,1-15-3c-3.52-1.36-7.65-3-8-6a4,4,0,0,1,2-4c1.9-.81,4.07,1.23,7,3a30.66,30.66,0,0,0,12,4v-14c-2.66-.35-10.24-1.68-15-8A22.63,22.63,0,0,1,460.9,376c-1.22-2.08-2.31-4.91-1.27-7.41.57-1.4,1.7-2.42,4.15-3.43a38.73,38.73,0,0,1,4.85-1.57c3-.83,19.39-5.11,33,0a6.92,6.92,0,0,1,4,3c2.1,4-2.2,9.89-3,11-5.66,7.72-15.83,8.78-19,9v14a26.19,26.19,0,0,0,6,0c2.15-.28,10.59-1.31,16-7a5,5,0,0,1,3-2c2.28-.25,5.11,2,5,4C513.55,396.85,512.35,397.64,508.63,399.63Z"/><path class="cls-3" d="M591.63,305.63c-4.68-2.4-27-12.89-47-1-16.89,10-20.28,28.89-21,33a50.8,50.8,0,0,0,2,25.29c5,1.54,6.76,2.71,8,3.71,7.34,5.78,11.32,15.55,11.73,25.46,13.23,10.81,37,21.48,56.27,10.54,18.15-10.33,20.51-33.21,21-38C625,342,613.52,316.78,591.63,305.63Zm-11,59c-1.36,4.45-3.54,11.59-10,14-7,2.61-14-2.31-15-3-8.85-6.25-9-17.86-9-21s-.14-11.52,6-18c1.52-1.61,5.8-6.17,12-6s10.38,5.05,12,7C585.41,348.11,581.2,362.76,580.63,364.63Z"/><path class="cls-24" d="M576.63,337.63c-1.62-1.95-5.73-6.85-12-7s-10.48,4.39-12,6c-6.14,6.48-6,14.95-6,18s.15,14.75,9,21c1,.69,8,5.61,15,3,6.46-2.41,8.64-9.55,10-14C581.2,362.76,585.41,348.11,576.63,337.63Zm-5,20c-2.41,1.66-5.81,1.16-8,0-4.36-2.34-4.83-7.79-5-10s-.65-7.75,3-10c3-1.89,6.84-.09,7,0,3.52,1.73,4.44,5.63,5,8C574.07,347.49,575.78,354.74,571.63,357.63Z"/><path class="cls-25" d="M571.63,357.63c-2.41,1.66-5.81,1.16-8,0-4.36-2.34-4.83-7.79-5-10s-.65-7.75,3-10c3-1.89,6.84-.09,7,0,3.52,1.73,4.44,5.63,5,8C574.07,347.49,575.78,354.74,571.63,357.63Z"/><path class="cls-26" d="M513.63,395.63c-.08,1.22-1.28,2-5,4-5.49,2.92-8.23,4.39-10,5-7.37,2.52-13.6,2.26-19,2a47.5,47.5,0,0,1-15-3c-3.52-1.36-7.65-3-8-6a4,4,0,0,1,2-4c1.9-.81,4.07,1.23,7,3a30.66,30.66,0,0,0,12,4v-14c-2.66-.35-10.24-1.68-15-8A22.63,22.63,0,0,1,460.9,376c-1.22-2.08-2.31-4.91-1.27-7.41.57-1.4,1.7-2.42,4.15-3.43a38.73,38.73,0,0,1,4.85-1.57c3-.83,19.39-5.11,33,0a6.92,6.92,0,0,1,4,3c2.1,4-2.2,9.89-3,11-5.66,7.72-15.83,8.78-19,9v14a26.19,26.19,0,0,0,6,0c2.15-.28,10.59-1.31,16-7a5,5,0,0,1,3-2C510.91,391.38,513.74,393.66,513.63,395.63Z"/><path class="cls-11" d="M464.53,357.78l-.87.29c-.3.08-.59.19-.9.29l-.84.29c-.34.12-.7.24-1,.38s-.66.24-1,.37l-.59.24c-.24.09-.49.2-.74.31l-.67.29c-.34.15-.69.3-1,.46l-1,.5c-.34.18-.69.34-1,.53-.69.36-1.4.75-2.09,1.16-1.05.63-2.09,1.32-3.13,2.07l-1,.75v0c.89-6.05,1.08-15-4.95-21.1-.87-.89-5.66-5.7-12-5-5.95.64-9.43,5.71-11,8a23.88,23.88,0,0,0-4,14c0,9.35,4.94,21.19,14,24a13.48,13.48,0,0,0,4.53.67c-.24.83-.44,1.67-.63,2.55-.11.43-.19.86-.27,1.3s-.13.74-.19,1.11-.09.53-.12.82c-.12.85-.23,1.72-.29,2.62,0,.32,0,.63-.05.94s0,.43,0,.63a33.45,33.45,0,0,0,1.19,10.28c-.7.38-1.43.73-2.15,1.08-1.67.77-28.48,12.71-49-3-18.74-14.36-16.54-39.75-16-46a60.49,60.49,0,0,1,10.55-29.05,61.17,61.17,0,0,1,7.45-8.95c4.4-4.37,13.9-13.8,27-16.36a33.93,33.93,0,0,1,8-.64c20.73.77,36.92,20.09,42,38A52,52,0,0,1,464.53,357.78Z"/><path class="cls-27" d="M443.63,344.63c-.87-.89-5.66-5.7-12-5-5.95.64-9.43,5.71-11,8a23.88,23.88,0,0,0-4,14c0,9.35,4.94,21.19,14,24a13.48,13.48,0,0,0,4.53.67,43.45,43.45,0,0,1,4.47-10.67,36.9,36.9,0,0,1,8.95-9.9C449.47,359.68,449.66,350.7,443.63,344.63Zm0,22a7.29,7.29,0,0,1-5,1c-4.3-.81-6.85-5.9-7-10a11.14,11.14,0,0,1,4-9c1-.79,2.78-2.28,5-2,4,.47,5.75,6.17,6,7C447.86,357.61,447.76,364,443.63,366.63Z"/><path class="cls-28" d="M443.63,366.63a7.29,7.29,0,0,1-5,1c-4.3-.81-6.85-5.9-7-10a11.14,11.14,0,0,1,4-9c1-.79,2.78-2.28,5-2,4,.47,5.75,6.17,6,7C447.86,357.61,447.76,364,443.63,366.63Z"/><path class="cls-29" d="M379.63,240.63c-.37.13-.85.28-1.45.51a4.51,4.51,0,0,1,1.49,1.65c2.1,4-2.35,10.42-9.94,14.41s-15.4,4-17.5,0a.45.45,0,0,0-.06-.12c-1.85,1.69-3.71,3.53-5.54,5.55A82.19,82.19,0,0,0,331.73,286l-.49,0c.1-1.54.25-3.16.49-4.86a63.35,63.35,0,0,1,9.9-26.53c3.84-5.83,13.88-18.95,32-25a60.73,60.73,0,0,1,16-3.45h0a44.78,44.78,0,0,1,18,2.45,51.43,51.43,0,0,1,17.9,11C413.83,236.49,397.34,234.63,379.63,240.63Z"/><path class="cls-30" d="M295.08,307.3a4.43,4.43,0,0,1,4.3.4c2.45,2,1.32,7.46-2.54,12.19s-9,6.9-11.44,4.89a4.3,4.3,0,0,1-1.26-3.83c-1.49,2-3,4.29-4.51,6.68a99.33,99.33,0,0,0-7.22,14c1.35-11,3.42-21.21,10.22-32,2.91-4.64,18.08-28.72,42-29,.9,0,1.78,0,2.65.05.05.39.1.75.15,1.12l.12.66s0,.05,0,.06c0,.25.09.47.15.7s.08.32.13.48c.12.4.25.79.41,1.19a10.11,10.11,0,0,0,.65,1.47,49.34,49.34,0,0,0-19.28,7.27C304.15,297.2,299.83,301.72,295.08,307.3Z"/><line class="cls-5" x1="338.63" y1="323.63" x2="312.63" y2="309.63"/><line class="cls-5" x1="331.63" y1="351.63" x2="314.63" y2="346.62"/><line class="cls-5" x1="322.63" y1="385.63" x2="294.63" y2="376.63"/><line class="cls-5" x1="735.63" y1="409.63" x2="731.91" y2="409.94"/><line class="cls-5" x1="731.86" y1="409.94" x2="699.63" y2="412.63"/><line class="cls-5" x1="683.63" y1="353.62" x2="697.13" y2="353.62"/><path class="cls-31" d="M774.73,352.6h0c-.18,10-1.84,28.23-10.72,41.46.71-5.16,1.32-11,1.62-17.44a208.12,208.12,0,0,0,0-26.56,6.69,6.69,0,0,1-4.73,3.57c-4.66.57-9.23-5.4-10.23-13.35s2-14.84,6.63-15.44a5.31,5.31,0,0,1,2.77.42,64.67,64.67,0,0,0-5.48-10.64c-3.74-5.86-10.72-16.48-23-19a27.64,27.64,0,0,0-11,0l-14.87-3.58a18.36,18.36,0,0,1,2.87-2.42c12.36-8.61,30-1.3,33,0,12.64,5.51,18.73,15.8,23,23a74.12,74.12,0,0,1,10,33C774.68,346.39,774.8,348.93,774.73,352.6Z"/><line class="cls-5" x1="705.75" y1="292.06" x2="695.63" y2="289.63"/><path class="cls-5" d="M549.63,741.63c-2.85,2.32-10.52,10.62-25.5,10.5-12.94-.12-5,0-5,0"/><path class="cls-5" d="M401.63,635.63A78.12,78.12,0,0,1,411.94,648"/><path class="cls-32" d="M381.8,536c-1,6.64-1.73,11.6-2.17,14.6-1.21,8.15-1.6,11.11-4,14-2.91,3.48-7.2,5-14,6-8.18,1.19-20.05,2.92-35-2a75.26,75.26,0,0,1-34-24A73.74,73.74,0,0,1,285,533a47.48,47.48,0,0,1,.91-5,45.29,45.29,0,0,1,5.77-5.34c3.9-3,9-6.92,16-7a21.39,21.39,0,0,1,9,2c17,7.3,22.66,13.29,33,17C363,539.43,375.77,537.33,381.8,536Z"/><path class="cls-33" d="M709.66,501.2a111.47,111.47,0,0,1-9,8.43c-14.54,12.07-28.28,17-37,20-10.77,3.72-35.7,12.35-45,3-1-1-1.42-1.78-6-7-1.23-1.42-2.41-2.74-3.52-4q1.95-1.08,3.9-2.26c1.45.45,2.65.86,3.62,1.22a60.57,60.57,0,0,0,21,4,62.58,62.58,0,0,0,22-4c10.1-3.79,10.17-6.75,23-13,10-4.9,15.47-7.55,23-7A27.46,27.46,0,0,1,709.66,501.2Z"/><path class="cls-34" d="M671.63,872.63c.78-10.13-75.08-16.68-178-17-104.45-.33-176.41,5.32-174,19,1.06,6,79.46,17.87,176,18C606.11,892.77,670.65,885.17,671.63,872.63Z"/><path class="cls-35" d="M754.63,640.63h19c6-.45,14.63-2.16,25-8q-.51,26.49-1,53a13.34,13.34,0,0,1-3,5c-4.09,4.2-9.78,4-12,4-2.53-.07-6.38-.17-9-3-.49-.53-2.63-2.84-2-5,.55-2,1.68-4.49,8-8,1.73-1,2-1,5-1a41.64,41.64,0,0,0,5,0q-.51-14-1-28a34.28,34.28,0,0,1-6,2,37.3,37.3,0,0,1-22-2q-.51,19-1,38a13,13,0,0,1-4,8c-4.87,4.32-12.59,3.51-17,0-.94-.75-4.12-3.28-4-7,.12-4.19,4.3-6.6,5-7a11.87,11.87,0,0,1,9-1l3,1,2,1v-41Z"/><path class="cls-36" d="M828.63,217.63c0,1-2.6,2.19-5,2a7.38,7.38,0,0,1-3-1c-2.75-1.49-3.1-3.24-6-5a12.45,12.45,0,0,0-2-1q-2.68,12-5.35,24.07c2.06,3.94.52,9.54-3.87,13.26-4.94,4.18-11.63,4.39-14.94.49s-2-10.49,3-14.66c3.66-3.11,8.3-4,11.8-2.68,2.8-11.48,5.59-23,8.4-34.48,4.89,9.89,8.43,12.44,10,14a20.92,20.92,0,0,0,6,4S828.61,217.16,828.63,217.63Z"/><path class="cls-37" d="M211.48,177.08l18.71-3.29h0c5.87-1.49,14-4.66,23.23-12.21q4.11,26.17,8.21,52.37a13.18,13.18,0,0,1-2.09,5.44c-3.29,4.85-8.92,5.69-11.12,6-2.5.38-6.31,1-9.39-1.39-.57-.44-3.07-2.34-2.83-4.58.21-2,.88-4.71,6.49-9.27,1.54-1.25,1.79-1.33,4.75-1.85a39.64,39.64,0,0,0,4.92-.87q-2.91-13.69-5.84-27.4a33.17,33.17,0,0,1-5.56,3,37.13,37.13,0,0,1-22,1.85q2.79,18.79,5.6,37.59a12.93,12.93,0,0,1-2.55,8.58c-4.05,5.1-11.79,5.64-16.74,2.94-1.06-.57-4.63-2.51-5.16-6.2-.59-4.13,3.1-7.24,3.71-7.76a11.9,11.9,0,0,1,8.69-2.54c.48.06,3.13.46,3.13.46l2.14.64-7.1-40.38Z"/><path class="cls-38" d="M218.18,462.42c.55.81-1,3.24-3.11,4.4a7.29,7.29,0,0,1-3.06.79c-3.12.25-4.36-1-7.76-.94a13.59,13.59,0,0,0-2.22.25q4.31,11.55,8.6,23.11c3.89,2.19,5.64,7.73,4,13.24-1.87,6.2-7.37,10-12.28,8.53s-7.36-7.72-5.48-13.9c1.39-4.61,4.79-7.9,8.45-8.68l-11.71-33.5c9.48,5.64,13.85,5.85,16,6.31a20.89,20.89,0,0,0,7.21.09S217.92,462,218.18,462.42Z"/><rect class="cls-5" x="0.13" y="0.13" width="1000" height="1000"/></g></g></svg>